<svg xmlns="http://www.w3.org/2000/svg" width="197.246" height="56.986" viewBox="0 0 197.246 56.986"><g transform="translate(-273.54 -338.363)"><g transform="translate(273.54 338.363)"><g transform="translate(61.7 20.471)"><path d="M710.664,496.937a8.441,8.441,0,0,1,0-11.941,8.966,8.966,0,0,1,12.245,0,8.441,8.441,0,0,1,0,11.941,8.966,8.966,0,0,1-12.245,0Zm1.836-10.269a6.157,6.157,0,1,0,4.287-1.743A5.8,5.8,0,0,0,712.5,486.668Z" transform="translate(-708.19 -482.579)"/><path d="M872.03,500.634V484.37h6.947a6.327,6.327,0,0,1,4.682,1.685,6.062,6.062,0,0,1-.011,8.4,6.309,6.309,0,0,1-4.67,1.7h-4.484v4.484H872.03Zm2.461-6.807h3.9a4.938,4.938,0,0,0,3.31-.941,3.746,3.746,0,0,0,0-5.264,4.9,4.9,0,0,0-3.31-.953h-3.9Z" transform="translate(-848.772 -484.114)"/><path d="M1017.458,484.37h2.463v9.41a7.035,7.035,0,0,1-1.941,5.112,8.267,8.267,0,0,1-10.78,0,7.034,7.034,0,0,1-1.94-5.112v-9.41h2.463v9.2a5.025,5.025,0,0,0,1.278,3.66,5.564,5.564,0,0,0,7.18,0,5.026,5.026,0,0,0,1.277-3.66Z" transform="translate(-963.09 -484.114)"/><path d="M1156.82,500.634V484.37h2.463v13.917h9.085v2.346Z" transform="translate(-1093.135 -484.114)"/><path d="M1264.7,496.937a8.441,8.441,0,0,1,0-11.941,8.966,8.966,0,0,1,12.245,0,8.441,8.441,0,0,1,0,11.941,8.966,8.966,0,0,1-12.245,0Zm1.836-10.269a6.157,6.157,0,1,0,4.287-1.743A5.8,5.8,0,0,0,1266.54,486.668Z" transform="translate(-1183.582 -482.579)"/><path d="M1436.458,484.37h2.463v9.41a7.034,7.034,0,0,1-1.941,5.112,8.267,8.267,0,0,1-10.78,0,7.035,7.035,0,0,1-1.94-5.112v-9.41h2.463v9.2a5.026,5.026,0,0,0,1.278,3.66,5.564,5.564,0,0,0,7.18,0,5.025,5.025,0,0,0,1.278-3.66Z" transform="translate(-1322.611 -484.114)"/><path d="M1568.62,494.954l2.44-.7a2.848,2.848,0,0,0,1.394,2.149,6.011,6.011,0,0,0,3.113.708,5.6,5.6,0,0,0,2.882-.616,1.888,1.888,0,0,0,1.022-1.685,1.517,1.517,0,0,0-.627-1.278,4.19,4.19,0,0,0-.663-.43,5.675,5.675,0,0,0-.894-.349q-.558-.174-.988-.291c-.287-.077-.661-.17-1.127-.278-.17-.047-.3-.077-.395-.092a17.987,17.987,0,0,1-2.254-.661,10.273,10.273,0,0,1-1.858-.93,3.9,3.9,0,0,1-1.383-1.441,4.07,4.07,0,0,1-.477-1.986,3.864,3.864,0,0,1,1.672-3.288,7.494,7.494,0,0,1,4.507-1.219,8.134,8.134,0,0,1,4.728,1.278,4.172,4.172,0,0,1,1.847,3.648v.278H1579.1v-.116a2.356,2.356,0,0,0-1.116-2.114,5.521,5.521,0,0,0-3.021-.72,4.845,4.845,0,0,0-2.66.616,1.878,1.878,0,0,0-.941,1.638,1.64,1.64,0,0,0,.233.872,2.437,2.437,0,0,0,.546.639,3.56,3.56,0,0,0,.953.5q.639.245,1.092.372t1.313.336q1.3.326,2.057.547a14.718,14.718,0,0,1,1.73.65,5.422,5.422,0,0,1,1.488.906,4.251,4.251,0,0,1,.883,1.219,3.757,3.757,0,0,1,.372,1.7,3.807,3.807,0,0,1-1.754,3.346,8.374,8.374,0,0,1-4.751,1.185,9.026,9.026,0,0,1-4.729-1.127A4.361,4.361,0,0,1,1568.62,494.954Z" transform="translate(-1446.479 -482.57)"/></g><path d="M273.548,366.818c0-4.269.013-8.537-.009-12.806a2.612,2.612,0,0,1,1.43-2.459q7.025-4.039,14.043-8.089c2.683-1.546,5.373-3.079,8.046-4.642a2.821,2.821,0,0,1,3.073-.009q11.036,6.379,22.091,12.729a2.668,2.668,0,0,1,1.394,1.762,2.706,2.706,0,0,1,.057.586q0,12.953,0,25.907a2.488,2.488,0,0,1-1.329,2.27c-1.479.863-2.967,1.713-4.452,2.568q-8.8,5.068-17.6,10.134a5.047,5.047,0,0,1-.977.467,2.573,2.573,0,0,1-2.134-.3q-2.972-1.72-5.951-3.428c-1.17-.674-2.334-1.361-3.512-2.021a2.706,2.706,0,0,1-1.481-2.545c.006-2.471,0-4.944,0-7.416a2.6,2.6,0,0,1,2.2-2.7,2.668,2.668,0,0,1,1.844.392q2.715,1.571,5.437,3.133c.785.453,1.58.889,2.349,1.366a.893.893,0,0,0,1.042,0q4.891-2.845,9.8-5.655c.8-.46,1.593-.931,2.4-1.376a.748.748,0,0,0,.443-.741q-.015-7.095,0-14.19a.758.758,0,0,0-.427-.75q-6.152-3.526-12.289-7.078a.8.8,0,0,0-.909.013q-6.115,3.539-12.248,7.049a.864.864,0,0,0-.458.884q.011,11.741,0,23.485a4.007,4.007,0,0,1-.054.836,2.59,2.59,0,0,1-3.78,1.755c-.625-.334-1.229-.7-1.843-1.058q-2.419-1.393-4.839-2.785a2.764,2.764,0,0,1-1.082-1.056,2.458,2.458,0,0,1-.294-1.232Q273.555,373.318,273.548,366.818Zm9.292,16.848v-.705q0-11.62-.006-23.239a3.147,3.147,0,0,1,1.709-2.948q6.2-3.547,12.375-7.127a3.133,3.133,0,0,1,3.367,0q6.181,3.575,12.375,7.126a3.193,3.193,0,0,1,1.723,3q-.015,7.071,0,14.141a3.226,3.226,0,0,1-1.755,3.031c-4.134,2.361-8.253,4.747-12.378,7.12a3.684,3.684,0,0,1-.667.318,3.073,3.073,0,0,1-2.612-.3q-3.784-2.191-7.577-4.368c-.152-.087-.305-.169-.528-.292v.569c0,2.224.009,4.45-.008,6.675a.722.722,0,0,0,.429.73q4.442,2.534,8.862,5.107a.763.763,0,0,0,.89.009q10.8-6.245,21.624-12.455a.768.768,0,0,0,.437-.779q-.017-12.435,0-24.87a.77.77,0,0,0-.453-.769q-10.776-6.19-21.543-12.4c-.169-.1-.339-.19-.512-.285q-11.255,6.484-22.446,12.929v25.935C278.359,381.087,280.552,382.349,282.84,383.666Z" transform="translate(-273.54 -338.364)"/><path d="M391.924,482.935c0-1.235.017-2.471-.007-3.706a1.612,1.612,0,0,1,.906-1.563q3.243-1.84,6.463-3.722a1.616,1.616,0,0,1,1.767-.006q3.266,1.9,6.548,3.774a1.55,1.55,0,0,1,.843,1.454q-.007,3.782,0,7.562a1.582,1.582,0,0,1-.873,1.486q-3.26,1.861-6.506,3.749a1.616,1.616,0,0,1-1.767.007q-3.245-1.889-6.507-3.748a1.584,1.584,0,0,1-.876-1.53C391.94,485.439,391.924,484.187,391.924,482.935Zm8.263-7.833a1.386,1.386,0,0,0-.15.064c-2.141,1.231-4.278,2.466-6.423,3.688a.544.544,0,0,0-.277.568c.006,2.355.008,4.71,0,7.065a.616.616,0,0,0,.369.613c1.376.778,2.741,1.573,4.111,2.361l2.354,1.356c.162-.088.305-.165.447-.246,2-1.15,3.99-2.305,5.995-3.442a.69.69,0,0,0,.4-.7q-.023-3.484,0-6.966a.686.686,0,0,0-.406-.693c-2.033-1.154-4.054-2.325-6.081-3.491C400.412,475.218,400.3,475.16,400.187,475.1Z" transform="translate(-375.113 -454.469)"/></g></g></svg>